<svg xmlns="http://www.w3.org/2000/svg" x="0px" y="0px"
     width="50" height="50"
     viewBox="0 0 252 252"
     style="fill:#000000;"><g fill="none" fill-rule="nonzero" stroke="none" stroke-width="1" stroke-linecap="butt" stroke-linejoin="miter" stroke-miterlimit="10" stroke-dasharray="" stroke-dashoffset="0" font-family="none" font-weight="none" font-size="none" text-anchor="none" style="mix-blend-mode: normal"><path d="M0,252v-252h252v252z" fill="none"></path><path d="M3.78,126c0,-67.50024 54.71976,-122.22 122.22,-122.22c67.50024,0 122.22,54.71976 122.22,122.22c0,67.50024 -54.71976,122.22 -122.22,122.22c-67.50024,0 -122.22,-54.71976 -122.22,-122.22zM126,243.18c64.71673,0 117.18,-52.46327 117.18,-117.18c0,-64.71673 -52.46327,-117.18 -117.18,-117.18c-64.71673,0 -117.18,52.46327 -117.18,117.18c0,64.71673 52.46327,117.18 117.18,117.18z" fill="#ee4444"></path><g id="Слой_1" fill="#c13221"><circle cx="41.78161" cy="37.78161" transform="scale(3.42562,3.42563)" r="2.5"></circle><circle cx="31.78161" cy="37.78161" transform="scale(3.42562,3.42563)" r="2.5"></circle><path d="M112.2975,146.55375c0,7.56721 6.13529,13.7025 13.7025,13.7025c7.56721,0 13.7025,-6.13529 13.7025,-13.7025z"></path><circle cx="36.78161" cy="56.78161" transform="scale(3.42562,3.42563)" r="2"></circle><path d="M169.85485,152.18548c1.27776,-2.88438 2.27804,-5.9092 2.96659,-9.05735h4.56293c9.44445,0 17.12813,-7.68368 17.12813,-17.12812c0,-8.27288 -5.8955,-15.18922 -13.7025,-16.78214v-10.62286c0,-26.70617 -19.2109,-48.98301 -44.53313,-53.80972v-1.00371c0,-3.77846 -3.06936,-6.84782 -6.84782,-6.84782h-6.8581c-3.77846,0 -6.84782,3.06936 -6.84782,6.84782v1.01056c-16.81982,3.20638 -31.34789,14.15468 -38.98019,29.82349h-5.55294c-7.55693,0 -13.7025,6.14557 -13.7025,13.7025c0,7.55693 6.14557,13.7025 13.7025,13.7025v7.19724c-7.807,1.59292 -13.7025,8.50925 -13.7025,16.78214c0,9.44445 7.68368,17.12812 17.12813,17.12812h4.56293c0.69198,3.14472 1.69226,6.17298 2.96659,9.05735c-15.68936,13.06876 -24.65765,32.10153 -24.65765,52.6039v10.27688h137.025v-10.27688c0,-20.50237 -8.96829,-39.53514 -24.65765,-52.6039zM84.8925,132.85125v-17.12812h3.42562c5.66598,0 10.27688,-4.61089 10.27688,-10.27687v-3.42563h23.97937c6.51554,0 12.42132,-2.6206 16.74788,-6.85125h10.65712c1.89094,0 3.42562,1.53468 3.42562,3.42563v6.85125c0,5.66598 4.61089,10.27687 10.27688,10.27687h3.42563v17.12812c0,22.66736 -18.44014,41.1075 -41.1075,41.1075c-22.66736,0 -41.1075,-18.44014 -41.1075,-41.1075zM187.66125,126c0,5.66598 -4.61089,10.27687 -10.27688,10.27687h-3.42562v-3.42562v-3.42563h3.42562c1.89437,0 3.42563,-1.53125 3.42563,-3.42562c0,-1.89437 -1.53125,-3.42563 -3.42563,-3.42563h-3.42562v-6.85125h3.42562c5.66598,0 10.27688,4.61089 10.27688,10.27688zM126,50.63625c26.44582,0 47.95875,21.51292 47.95875,47.95875v10.27687h-3.42563h-3.42562h-3.42563c-1.89094,0 -3.42563,-1.53468 -3.42563,-3.42562v-6.85125c0,-5.66598 -4.61089,-10.27688 -10.27687,-10.27688h-5.77218c1.49015,-3.12074 2.34655,-6.59775 2.34655,-10.27688v-3.42562h-62.06547c8.50583,-14.71306 24.25,-23.97937 41.51172,-23.97937zM64.33875,88.31812c0,-3.77846 3.07279,-6.85125 6.85125,-6.85125h68.16651c-1.59292,7.807 -8.50925,13.7025 -16.78214,13.7025h-51.38437c-3.77846,0 -6.85125,-3.07279 -6.85125,-6.85125zM91.74375,102.02063v3.42563c0,1.89095 -1.53468,3.42562 -3.42563,3.42562h-3.42562h-3.42562h-3.42562v-6.85125zM78.04125,136.27687h-3.42562c-5.66598,0 -10.27688,-4.61089 -10.27688,-10.27687c0,-5.66598 4.61089,-10.27688 10.27688,-10.27688h3.42562v6.85125h-3.42562c-1.89437,0 -3.42562,1.53125 -3.42562,3.42563c0,1.89437 1.53125,3.42562 3.42562,3.42562h3.42562v3.42563zM187.66125,208.215h-20.55375v-6.85125h-6.85125v6.85125h-68.5125v-6.85125h-6.85125v6.85125h-20.55375v-3.42563c0,-17.98453 7.64942,-34.72214 21.1087,-46.45148c8.49898,13.47641 23.47923,22.4721 40.55255,22.4721c17.07332,0 32.05357,-8.99569 40.55255,-22.4721c13.45928,11.72934 21.1087,28.46694 21.1087,46.45148z"></path></g><path d="M126,254.52c-70.97964,0 -128.52,-57.54036 -128.52,-128.52v0c0,-70.97964 57.54036,-128.52 128.52,-128.52v0c70.97964,0 128.52,57.54036 128.52,128.52v0c0,70.97964 -57.54036,128.52 -128.52,128.52z" fill="none"></path><path d="M126,249.48c-68.19612,0 -123.48,-55.28388 -123.48,-123.48v0c0,-68.19612 55.28388,-123.48 123.48,-123.48h0c68.19612,0 123.48,55.28388 123.48,123.48v0c0,68.19612 -55.28388,123.48 -123.48,123.48z" fill="none"></path><path d="M126,254.52c-70.97964,0 -128.52,-57.54036 -128.52,-128.52v0c0,-70.97964 57.54036,-128.52 128.52,-128.52v0c70.97964,0 128.52,57.54036 128.52,128.52v0c0,70.97964 -57.54036,128.52 -128.52,128.52z" fill="none"></path><path d="M126,249.48c-68.19612,0 -123.48,-55.28388 -123.48,-123.48v0c0,-68.19612 55.28388,-123.48 123.48,-123.48h0c68.19612,0 123.48,55.28388 123.48,123.48v0c0,68.19612 -55.28388,123.48 -123.48,123.48z" fill="none"></path><path d="M126,252c-69.58788,0 -126,-56.41212 -126,-126v0c0,-69.58788 56.41212,-126 126,-126v0c69.58788,0 126,56.41212 126,126v0c0,69.58788 -56.41212,126 -126,126z" fill="none"></path><path d="M126,246.96c-66.80436,0 -120.96,-54.15564 -120.96,-120.96v0c0,-66.80436 54.15564,-120.96 120.96,-120.96h0c66.80436,0 120.96,54.15564 120.96,120.96v0c0,66.80436 -54.15564,120.96 -120.96,120.96z" fill="none"></path><path d="M126,250.74c-68.892,0 -124.74,-55.848 -124.74,-124.74v0c0,-68.892 55.848,-124.74 124.74,-124.74h0c68.892,0 124.74,55.848 124.74,124.74v0c0,68.892 -55.848,124.74 -124.74,124.74z" fill="none"></path><path d="M126,245.7c-66.10848,0 -119.7,-53.59152 -119.7,-119.7v0c0,-66.10848 53.59152,-119.7 119.7,-119.7v0c66.10848,0 119.7,53.59152 119.7,119.7v0c0,66.10848 -53.59152,119.7 -119.7,119.7z" fill="none"></path><path d="M126,249.48c-68.19612,0 -123.48,-55.28388 -123.48,-123.48v0c0,-68.19612 55.28388,-123.48 123.48,-123.48h0c68.19612,0 123.48,55.28388 123.48,123.48v0c0,68.19612 -55.28388,123.48 -123.48,123.48z" fill="none"></path><path d="M126,244.44c-65.41261,0 -118.44,-53.02739 -118.44,-118.44v0c0,-65.41261 53.02739,-118.44 118.44,-118.44v0c65.41261,0 118.44,53.02739 118.44,118.44v0c0,65.41261 -53.02739,118.44 -118.44,118.44z" fill="none"></path><path d="M126,248.22c-67.50024,0 -122.22,-54.71976 -122.22,-122.22v0c0,-67.50024 54.71976,-122.22 122.22,-122.22v0c67.50024,0 122.22,54.71976 122.22,122.22v0c0,67.50024 -54.71976,122.22 -122.22,122.22z" fill="none"></path><path d="M126,243.18c-64.71673,0 -117.18,-52.46327 -117.18,-117.18v0c0,-64.71673 52.46327,-117.18 117.18,-117.18h0c64.71673,0 117.18,52.46327 117.18,117.18v0c0,64.71673 -52.46327,117.18 -117.18,117.18z" fill="none"></path><path d="M126,246.96c-66.80436,0 -120.96,-54.15564 -120.96,-120.96v0c0,-66.80436 54.15564,-120.96 120.96,-120.96h0c66.80436,0 120.96,54.15564 120.96,120.96v0c0,66.80436 -54.15564,120.96 -120.96,120.96z" fill="none"></path><path d="M126,241.92c-64.02085,0 -115.92,-51.89915 -115.92,-115.92v0c0,-64.02085 51.89915,-115.92 115.92,-115.92v0c64.02085,0 115.92,51.89915 115.92,115.92v0c0,64.02085 -51.89915,115.92 -115.92,115.92z" fill="none"></path><path d="M126,248.22c-67.50024,0 -122.22,-54.71976 -122.22,-122.22v0c0,-67.50024 54.71976,-122.22 122.22,-122.22v0c67.50024,0 122.22,54.71976 122.22,122.22v0c0,67.50024 -54.71976,122.22 -122.22,122.22z" fill="none"></path><path d="M126,243.18c-64.71673,0 -117.18,-52.46327 -117.18,-117.18v0c0,-64.71673 52.46327,-117.18 117.18,-117.18h0c64.71673,0 117.18,52.46327 117.18,117.18v0c0,64.71673 -52.46327,117.18 -117.18,117.18z" fill="none"></path></g></svg>