<svg xmlns="http://www.w3.org/2000/svg" x="0px" y="0px"
     width="50" height="50"
     viewBox="0 0 252 252"
     style="fill:#e74c3c;"><g fill="none" fill-rule="nonzero" stroke="none" stroke-width="1" stroke-linecap="butt" stroke-linejoin="miter" stroke-miterlimit="10" stroke-dasharray="" stroke-dashoffset="0" font-family="none" font-weight="none" font-size="none" text-anchor="none" style="mix-blend-mode: normal"><path d="M0,252v-252h252v252z" fill="none"></path><path d="M7.56,126c0,-65.41261 53.02739,-118.44 118.44,-118.44c65.41261,0 118.44,53.02739 118.44,118.44c0,65.41261 -53.02739,118.44 -118.44,118.44c-65.41261,0 -118.44,-53.02739 -118.44,-118.44zM126,239.4c62.62909,0 113.4,-50.77091 113.4,-113.4c0,-62.62909 -50.77091,-113.4 -113.4,-113.4c-62.62909,0 -113.4,50.77091 -113.4,113.4c0,62.62909 50.77091,113.4 113.4,113.4z" fill="#f0b6b0"></path><g id="Слой_1" fill="#f0b6b0"><path d="M73.66717,106.70271l29.7688,25.18732c2.31085,1.9551 5.69824,1.9551 8.00909,0l29.7688,-25.18732c2.19639,-1.8592 0.88165,-5.45076 -2.0015,-5.45076h-63.54679c-2.88315,0 -4.19789,3.59156 -1.9984,5.45076z"></path><path d="M195.972,76.15125c-3.18631,-1.38589 -7.84822,-2.50574 -13.11956,-2.50574c-17.04212,0 -29.0573,12.9061 -29.0573,27.23522c0,9.13203 6.12823,14.25178 13.2402,14.25178c7.35636,0 12.99891,-4.60004 17.2896,-10.78705h0.48877c-0.36813,6.18701 4.17005,10.78705 9.07325,10.78705c11.5264,0 21.82468,-9.55274 21.82468,-26.88566c0,-19.29729 -14.34458,-33.39748 -35.6774,-33.39748c-21.90202,0 -37.51494,13.32991 -42.78318,30.93505h-85.49521c-8.52879,0 -15.46753,6.93873 -15.46753,15.46753v80.43114c0,8.52879 6.93873,15.46753 15.46753,15.46753h111.3662c8.52879,0 15.46753,-6.93873 15.46753,-15.46753v-46.681c5.61781,-0.52899 10.67878,-1.86538 15.66551,-4.34328l-1.96128,-4.96817c-5.02695,2.65732 -11.5264,4.04631 -18.51463,4.04631c-18.1465,0 -31.51045,-11.9069 -31.51045,-31.20419c0,-23.45805 16.79773,-38.36875 36.78178,-38.36875c19.0034,0 29.6729,12.01208 29.6729,28.77269c0,13.40416 -6.99132,21.25548 -13.2433,21.13792c-4.04631,-0.11446 -5.51881,-4.17933 -3.67818,-12.96179zM51.75587,91.97144h84.12479c-0.36813,2.37581 -0.60014,4.78875 -0.60014,7.25427c0,7.79873 2.14071,14.54257 5.74464,20.04592l-27.70853,22.66921c-3.40904,2.78415 -8.34937,2.78415 -11.75841,0l-56.9205,-46.57272c1.70452,-2.05718 4.24429,-3.39667 7.11816,-3.39667zM79.86655,132.18701l-37.3912,30.59477v-61.18954zM163.12207,190.96361h-111.3662c-5.11666,0 -9.28052,-4.16386 -9.28052,-9.28052v-10.9077l42.27894,-34.59158l12.89064,10.54885c2.83674,2.32013 6.31384,3.48019 9.79404,3.48019c3.4771,0 6.95729,-1.16006 9.79404,-3.48019l12.89373,-10.54885l42.27585,34.59158v10.9077c0,5.11666 -4.16386,9.28052 -9.28052,9.28052zM172.40258,135.28052v27.50126l-37.3912,-30.59477l9.87138,-8.07714c6.8583,7.13362 16.73277,11.16137 27.51982,11.17065zM184.93747,93.79661c-1.34877,7.16456 -7.84822,15.71501 -14.9571,15.71501c-5.39507,0 -8.09261,-3.69674 -8.09261,-8.78246c0,-11.21086 8.70512,-20.80073 19.49527,-20.80073c2.82128,0 4.9063,0.46403 6.13133,0.8105z"></path><rect x="26.73049" y="57.73049" transform="scale(3.09351,3.09351)" width="16" height="2"></rect></g><path d="M126,244.44c-65.41261,0 -118.44,-53.02739 -118.44,-118.44v0c0,-65.41261 53.02739,-118.44 118.44,-118.44v0c65.41261,0 118.44,53.02739 118.44,118.44v0c0,65.41261 -53.02739,118.44 -118.44,118.44z" fill="none"></path><path d="M126,239.4c-62.62909,0 -113.4,-50.77091 -113.4,-113.4v0c0,-62.62909 50.77091,-113.4 113.4,-113.4h0c62.62909,0 113.4,50.77091 113.4,113.4v0c0,62.62909 -50.77091,113.4 -113.4,113.4z" fill="none"></path></g></svg>