<svg xmlns="http://www.w3.org/2000/svg" x="0px" y="0px"
     width="50" height="50"
     viewBox="0 0 252 252"
     style="fill:#000000;"><g fill="none" fill-rule="nonzero" stroke="none" stroke-width="1" stroke-linecap="butt" stroke-linejoin="miter" stroke-miterlimit="10" stroke-dasharray="" stroke-dashoffset="0" font-family="none" font-weight="none" font-size="none" text-anchor="none" style="mix-blend-mode: normal"><path d="M0,252v-252h252v252z" fill="none"></path><path d="M7.56,126c0,-65.41261 53.02739,-118.44 118.44,-118.44c65.41261,0 118.44,53.02739 118.44,118.44c0,65.41261 -53.02739,118.44 -118.44,118.44c-65.41261,0 -118.44,-53.02739 -118.44,-118.44zM126,239.4c62.62909,0 113.4,-50.77091 113.4,-113.4c0,-62.62909 -50.77091,-113.4 -113.4,-113.4c-62.62909,0 -113.4,50.77091 -113.4,113.4c0,62.62909 50.77091,113.4 113.4,113.4z" fill="#f0b6b0"></path><g id="Слой_1" fill="#f0b6b0"><path d="M74.77688,104.90813v-15.06562c0,-1.66324 1.34988,-3.01312 3.01312,-3.01312h15.06563z"></path><path d="M207.35438,165.17063h-6.02625v-87.38063c0,-8.30719 -6.75844,-15.06563 -15.06562,-15.06563h-120.525c-8.30719,0 -15.06562,6.75844 -15.06562,15.06563v87.38063h-6.02625c-3.32348,0 -6.02625,2.70277 -6.02625,6.02625v3.01312c0,8.30719 6.75844,15.06563 15.06563,15.06563h144.63c8.30719,0 15.06562,-6.75844 15.06562,-15.06563v-3.01312c0,-3.32348 -2.70277,-6.02625 -6.02625,-6.02625zM56.69813,77.79c0,-4.98371 4.05567,-9.03937 9.03937,-9.03937h120.525c4.98371,0 9.03938,4.05567 9.03938,9.03937v87.38063h-46.34789c-2.30504,0 -4.36903,1.28058 -5.38747,3.3295l-1.34988,2.69675l-32.43629,-0.00603l-1.34084,-2.68168c-1.02446,-2.05796 -3.09147,-3.33854 -5.39349,-3.33854h-46.34789zM207.35438,174.21c0,4.98371 -4.05567,9.03938 -9.03938,9.03938h-144.63c-4.98371,0 -9.03937,-4.05567 -9.03937,-9.03938v-3.01312l58.4034,0.00603l1.34084,2.68168c1.02446,2.06098 3.08845,3.33854 5.39349,3.33854h32.43328c2.30504,0 4.36903,-1.28058 5.38747,-3.3295l1.34988,-2.69675h58.40039z"></path><path d="M189.27563,83.81625c0,-4.98371 -4.05567,-9.03937 -9.03938,-9.03937h-108.4725c-4.98371,0 -9.03937,4.05567 -9.03937,9.03937v75.32813h126.55125zM183.24937,153.11812h-114.49875v-69.30187c0,-1.66325 1.34988,-3.01313 3.01312,-3.01313h108.4725c1.66325,0 3.01313,1.34988 3.01313,3.01313z"></path><path d="M144.07875,95.86875h-36.1575c-3.32348,0 -6.02625,2.70277 -6.02625,6.02625v30.13125c0,3.32348 2.70277,6.02625 6.02625,6.02625h36.1575c3.32348,0 6.02625,-2.70277 6.02625,-6.02625v-30.13125c0,-3.32348 -2.70277,-6.02625 -6.02625,-6.02625zM144.07875,132.02625h-36.1575v-30.13125h36.1575z"></path><rect x="37.81705" y="35.81705" transform="scale(3.01312,3.01312)" width="8" height="2"></rect><rect x="37.81705" y="39.81705" transform="scale(3.01312,3.01312)" width="8" height="2"></rect></g><path d="M126,252c-69.58788,0 -126,-56.41212 -126,-126v0c0,-69.58788 56.41212,-126 126,-126v0c69.58788,0 126,56.41212 126,126v0c0,69.58788 -56.41212,126 -126,126z" fill="none"></path><path d="M126,246.96c-66.80436,0 -120.96,-54.15564 -120.96,-120.96v0c0,-66.80436 54.15564,-120.96 120.96,-120.96h0c66.80436,0 120.96,54.15564 120.96,120.96v0c0,66.80436 -54.15564,120.96 -120.96,120.96z" fill="none"></path><path d="M126,246.96c-66.80436,0 -120.96,-54.15564 -120.96,-120.96v0c0,-66.80436 54.15564,-120.96 120.96,-120.96h0c66.80436,0 120.96,54.15564 120.96,120.96v0c0,66.80436 -54.15564,120.96 -120.96,120.96z" fill="none"></path><path d="M126,241.92c-64.02085,0 -115.92,-51.89915 -115.92,-115.92v0c0,-64.02085 51.89915,-115.92 115.92,-115.92v0c64.02085,0 115.92,51.89915 115.92,115.92v0c0,64.02085 -51.89915,115.92 -115.92,115.92z" fill="none"></path><path d="M126,245.7c-66.10848,0 -119.7,-53.59152 -119.7,-119.7v0c0,-66.10848 53.59152,-119.7 119.7,-119.7h0c66.10848,0 119.7,53.59152 119.7,119.7v0c0,66.10848 -53.59152,119.7 -119.7,119.7z" fill="none"></path><path d="M126,240.66c-63.32497,0 -114.66,-51.33503 -114.66,-114.66v0c0,-63.32497 51.33503,-114.66 114.66,-114.66v0c63.32497,0 114.66,51.33503 114.66,114.66v0c0,63.32497 -51.33503,114.66 -114.66,114.66z" fill="none"></path><path d="M126,244.44c-65.41261,0 -118.44,-53.02739 -118.44,-118.44v0c0,-65.41261 53.02739,-118.44 118.44,-118.44v0c65.41261,0 118.44,53.02739 118.44,118.44v0c0,65.41261 -53.02739,118.44 -118.44,118.44z" fill="none"></path><path d="M126,239.4c-62.62909,0 -113.4,-50.77091 -113.4,-113.4v0c0,-62.62909 50.77091,-113.4 113.4,-113.4h0c62.62909,0 113.4,50.77091 113.4,113.4v0c0,62.62909 -50.77091,113.4 -113.4,113.4z" fill="none"></path><path d="M126,243.18c-64.71673,0 -117.18,-52.46327 -117.18,-117.18v0c0,-64.71673 52.46327,-117.18 117.18,-117.18v0c64.71673,0 117.18,52.46327 117.18,117.18v0c0,64.71673 -52.46327,117.18 -117.18,117.18z" fill="none"></path><path d="M126,238.14c-61.93321,0 -112.14,-50.20679 -112.14,-112.14v0c0,-61.93321 50.20679,-112.14 112.14,-112.14h0c61.93321,0 112.14,50.20679 112.14,112.14v0c0,61.93321 -50.20679,112.14 -112.14,112.14z" fill="none"></path><path d="M126,241.92c-64.02085,0 -115.92,-51.89915 -115.92,-115.92v0c0,-64.02085 51.89915,-115.92 115.92,-115.92h0c64.02085,0 115.92,51.89915 115.92,115.92v0c0,64.02085 -51.89915,115.92 -115.92,115.92z" fill="none"></path><path d="M126,236.88c-61.23733,0 -110.88,-49.64267 -110.88,-110.88v0c0,-61.23733 49.64267,-110.88 110.88,-110.88v0c61.23733,0 110.88,49.64267 110.88,110.88v0c0,61.23733 -49.64267,110.88 -110.88,110.88z" fill="none"></path><path d="M126,243.18c-64.71673,0 -117.18,-52.46327 -117.18,-117.18v0c0,-64.71673 52.46327,-117.18 117.18,-117.18v0c64.71673,0 117.18,52.46327 117.18,117.18v0c0,64.71673 -52.46327,117.18 -117.18,117.18z" fill="none"></path><path d="M126,238.14c-61.93321,0 -112.14,-50.20679 -112.14,-112.14v0c0,-61.93321 50.20679,-112.14 112.14,-112.14h0c61.93321,0 112.14,50.20679 112.14,112.14v0c0,61.93321 -50.20679,112.14 -112.14,112.14z" fill="none"></path><path d="M126,244.44c-65.41261,0 -118.44,-53.02739 -118.44,-118.44v0c0,-65.41261 53.02739,-118.44 118.44,-118.44v0c65.41261,0 118.44,53.02739 118.44,118.44v0c0,65.41261 -53.02739,118.44 -118.44,118.44z" fill="none"></path><path d="M126,239.4c-62.62909,0 -113.4,-50.77091 -113.4,-113.4v0c0,-62.62909 50.77091,-113.4 113.4,-113.4h0c62.62909,0 113.4,50.77091 113.4,113.4v0c0,62.62909 -50.77091,113.4 -113.4,113.4z" fill="none"></path><path d="M126,244.44c-65.41261,0 -118.44,-53.02739 -118.44,-118.44v0c0,-65.41261 53.02739,-118.44 118.44,-118.44v0c65.41261,0 118.44,53.02739 118.44,118.44v0c0,65.41261 -53.02739,118.44 -118.44,118.44z" fill="none"></path><path d="M126,239.4c-62.62909,0 -113.4,-50.77091 -113.4,-113.4v0c0,-62.62909 50.77091,-113.4 113.4,-113.4h0c62.62909,0 113.4,50.77091 113.4,113.4v0c0,62.62909 -50.77091,113.4 -113.4,113.4z" fill="none"></path><path d="M126,244.44c-65.41261,0 -118.44,-53.02739 -118.44,-118.44v0c0,-65.41261 53.02739,-118.44 118.44,-118.44v0c65.41261,0 118.44,53.02739 118.44,118.44v0c0,65.41261 -53.02739,118.44 -118.44,118.44z" fill="none"></path><path d="M126,239.4c-62.62909,0 -113.4,-50.77091 -113.4,-113.4v0c0,-62.62909 50.77091,-113.4 113.4,-113.4h0c62.62909,0 113.4,50.77091 113.4,113.4v0c0,62.62909 -50.77091,113.4 -113.4,113.4z" fill="none"></path><path d="M126,244.44c-65.41261,0 -118.44,-53.02739 -118.44,-118.44v0c0,-65.41261 53.02739,-118.44 118.44,-118.44v0c65.41261,0 118.44,53.02739 118.44,118.44v0c0,65.41261 -53.02739,118.44 -118.44,118.44z" fill="none"></path><path d="M126,239.4c-62.62909,0 -113.4,-50.77091 -113.4,-113.4v0c0,-62.62909 50.77091,-113.4 113.4,-113.4h0c62.62909,0 113.4,50.77091 113.4,113.4v0c0,62.62909 -50.77091,113.4 -113.4,113.4z" fill="none"></path><path d="M126,244.44c-65.41261,0 -118.44,-53.02739 -118.44,-118.44v0c0,-65.41261 53.02739,-118.44 118.44,-118.44v0c65.41261,0 118.44,53.02739 118.44,118.44v0c0,65.41261 -53.02739,118.44 -118.44,118.44z" fill="none"></path><path d="M126,239.4c-62.62909,0 -113.4,-50.77091 -113.4,-113.4v0c0,-62.62909 50.77091,-113.4 113.4,-113.4h0c62.62909,0 113.4,50.77091 113.4,113.4v0c0,62.62909 -50.77091,113.4 -113.4,113.4z" fill="none"></path><path d="M126,244.44c-65.41261,0 -118.44,-53.02739 -118.44,-118.44v0c0,-65.41261 53.02739,-118.44 118.44,-118.44v0c65.41261,0 118.44,53.02739 118.44,118.44v0c0,65.41261 -53.02739,118.44 -118.44,118.44z" fill="none"></path><path d="M126,239.4c-62.62909,0 -113.4,-50.77091 -113.4,-113.4v0c0,-62.62909 50.77091,-113.4 113.4,-113.4h0c62.62909,0 113.4,50.77091 113.4,113.4v0c0,62.62909 -50.77091,113.4 -113.4,113.4z" fill="none"></path><path d="M126,244.44c-65.41261,0 -118.44,-53.02739 -118.44,-118.44v0c0,-65.41261 53.02739,-118.44 118.44,-118.44v0c65.41261,0 118.44,53.02739 118.44,118.44v0c0,65.41261 -53.02739,118.44 -118.44,118.44z" fill="none"></path><path d="M126,239.4c-62.62909,0 -113.4,-50.77091 -113.4,-113.4v0c0,-62.62909 50.77091,-113.4 113.4,-113.4h0c62.62909,0 113.4,50.77091 113.4,113.4v0c0,62.62909 -50.77091,113.4 -113.4,113.4z" fill="none"></path><path d="M126,244.44c-65.41261,0 -118.44,-53.02739 -118.44,-118.44v0c0,-65.41261 53.02739,-118.44 118.44,-118.44v0c65.41261,0 118.44,53.02739 118.44,118.44v0c0,65.41261 -53.02739,118.44 -118.44,118.44z" fill="none"></path><path d="M126,239.4c-62.62909,0 -113.4,-50.77091 -113.4,-113.4v0c0,-62.62909 50.77091,-113.4 113.4,-113.4h0c62.62909,0 113.4,50.77091 113.4,113.4v0c0,62.62909 -50.77091,113.4 -113.4,113.4z" fill="none"></path><path d="M126,244.44c-65.41261,0 -118.44,-53.02739 -118.44,-118.44v0c0,-65.41261 53.02739,-118.44 118.44,-118.44v0c65.41261,0 118.44,53.02739 118.44,118.44v0c0,65.41261 -53.02739,118.44 -118.44,118.44z" fill="none"></path><path d="M126,239.4c-62.62909,0 -113.4,-50.77091 -113.4,-113.4v0c0,-62.62909 50.77091,-113.4 113.4,-113.4h0c62.62909,0 113.4,50.77091 113.4,113.4v0c0,62.62909 -50.77091,113.4 -113.4,113.4z" fill="none"></path></g></svg>