<svg xmlns="http://www.w3.org/2000/svg" x="0px" y="0px"
     width="50" height="50"
     viewBox="0 0 252 252"
     style="fill:#e74c3c;"><g fill="none" fill-rule="nonzero" stroke="none" stroke-width="1" stroke-linecap="butt" stroke-linejoin="miter" stroke-miterlimit="10" stroke-dasharray="" stroke-dashoffset="0" font-family="none" font-weight="none" font-size="none" text-anchor="none" style="mix-blend-mode: normal"><path d="M0,252v-252h252v252z" fill="none"></path><path d="M7.56,126c0,-65.41261 53.02739,-118.44 118.44,-118.44c65.41261,0 118.44,53.02739 118.44,118.44c0,65.41261 -53.02739,118.44 -118.44,118.44c-65.41261,0 -118.44,-53.02739 -118.44,-118.44zM126,239.4c62.62909,0 113.4,-50.77091 113.4,-113.4c0,-62.62909 -50.77091,-113.4 -113.4,-113.4c-62.62909,0 -113.4,50.77091 -113.4,113.4c0,62.62909 50.77091,113.4 113.4,113.4z" fill="#f0b6b0"></path><g id="Слой_1" fill="#f0b6b0"><path d="M168.76274,103.62452l-41.48516,-19.52225c-0.80753,-0.37966 -1.74763,-0.37966 -2.55214,0l-41.48516,19.52225c-1.10583,0.52128 -1.10583,2.05196 0,2.57022l41.48516,19.52225c0.80753,0.37966 1.74763,0.37966 2.55214,0l41.48516,-19.52225c1.10282,-0.52128 1.10282,-2.05196 0,-2.57022z"></path><path d="M207.35527,154.79397v-1.67532c0,-2.2207 -1.22033,-4.14309 -3.01316,-5.18866v-35.33229l5.66172,-2.55516c2.08209,-0.94011 3.37775,-2.9077 3.37775,-5.13442c0,-2.22672 -1.29566,-4.19432 -3.37775,-5.13141l-80.29162,-36.25432c-2.3593,-1.06666 -5.07114,-1.06666 -7.42442,0l-80.29162,36.25432c-2.08209,0.94011 -3.37775,2.9077 -3.37775,5.13141c0,2.22371 1.29566,4.19432 3.37775,5.13141l17.71436,7.99993v19.9923c0,3.6188 2.87154,6.51746 5.72199,7.786l54.35436,24.12636c1.87117,0.83464 3.92614,1.25046 5.97811,1.25046c2.04895,0 4.09488,-0.41582 5.96003,-1.24443l54.76415,-24.13238c2.88661,-1.28361 5.80033,-4.18829 5.80033,-7.786v-19.9923l6.02632,-2.72088v32.61442c-1.79283,1.04557 -3.01316,2.96796 -3.01316,5.18866v1.67532c-3.58566,2.09113 -6.02632,5.93592 -6.02632,10.37732v12.05263c0,6.64703 5.40561,12.05263 12.05263,12.05263c6.64703,0 12.05263,-5.40561 12.05263,-12.05263v-12.05263c0,-4.44441 -2.44066,-8.2892 -6.02632,-10.38033zM208.76542,102.5217l-1.23238,2.748c-0.00301,0 -0.00301,0 -0.00603,-0.00301zM124.77063,69.01237c0.77137,-0.34651 1.68737,-0.34651 2.46175,0l79.49615,35.89575l-79.49916,35.89575c-0.77137,0.34651 -1.68737,0.34651 -2.46175,0l-79.49615,-35.89575zM171.19737,127.56406v18.4104l-18.07895,7.96679v-18.21153zM98.88158,135.72671v18.34411l-18.07895,-8.02404v-18.48271zM65.73684,138.03177v-17.27142l9.03947,4.08283v18.53092l-6.89712,-3.06137c-1.26251,-0.56346 -2.14236,-1.65422 -2.14236,-2.28096zM104.90789,156.7465v-18.29891l17.3799,7.84626c0.22599,0.10245 0.46704,0.14764 0.69905,0.229v18.15126c-0.25009,-0.08437 -0.51224,-0.13258 -0.75028,-0.23804zM129.28434,164.4421c-0.08738,0.03917 -0.1838,0.05122 -0.27118,0.08738v-18.00362c0.23201,-0.08136 0.47307,-0.12655 0.69604,-0.229l17.38291,-7.84928v18.14825zM186.26316,138.03177c0,0.60866 -0.94914,1.71147 -2.21166,2.27493l-6.82782,3.01014v-18.47367l9.03947,-4.07982zM201.32895,159.14497c3.32351,0 6.02632,2.7028 6.02632,6.02632v3.01316h-12.05263v-3.01316c0,-3.3205 2.7028,-6.02632 6.02632,-6.02632zM201.32895,183.25023c-3.32351,0 -6.02632,-2.7028 -6.02632,-6.02632v-3.01316h12.05263v3.01316c0,3.32351 -2.7028,6.02632 -6.02632,6.02632z"></path></g><path d="M126,244.44c-65.41261,0 -118.44,-53.02739 -118.44,-118.44v0c0,-65.41261 53.02739,-118.44 118.44,-118.44v0c65.41261,0 118.44,53.02739 118.44,118.44v0c0,65.41261 -53.02739,118.44 -118.44,118.44z" fill="none"></path><path d="M126,239.4c-62.62909,0 -113.4,-50.77091 -113.4,-113.4v0c0,-62.62909 50.77091,-113.4 113.4,-113.4h0c62.62909,0 113.4,50.77091 113.4,113.4v0c0,62.62909 -50.77091,113.4 -113.4,113.4z" fill="none"></path><path d="M126,244.44c-65.41261,0 -118.44,-53.02739 -118.44,-118.44v0c0,-65.41261 53.02739,-118.44 118.44,-118.44v0c65.41261,0 118.44,53.02739 118.44,118.44v0c0,65.41261 -53.02739,118.44 -118.44,118.44z" fill="none"></path><path d="M126,239.4c-62.62909,0 -113.4,-50.77091 -113.4,-113.4v0c0,-62.62909 50.77091,-113.4 113.4,-113.4h0c62.62909,0 113.4,50.77091 113.4,113.4v0c0,62.62909 -50.77091,113.4 -113.4,113.4z" fill="none"></path></g></svg>