<svg xmlns="http://www.w3.org/2000/svg" x="0px" y="0px"
     width="50" height="50"
     viewBox="0 0 252 252"
     style="fill:#000000;"><g fill="none" fill-rule="nonzero" stroke="none" stroke-width="1" stroke-linecap="butt" stroke-linejoin="miter" stroke-miterlimit="10" stroke-dasharray="" stroke-dashoffset="0" font-family="none" font-weight="none" font-size="none" text-anchor="none" style="mix-blend-mode: normal"><path d="M0,252v-252h252v252z" fill="none"></path><path d="M7.56,126c0,-65.41261 53.02739,-118.44 118.44,-118.44c65.41261,0 118.44,53.02739 118.44,118.44c0,65.41261 -53.02739,118.44 -118.44,118.44c-65.41261,0 -118.44,-53.02739 -118.44,-118.44zM126,239.4c62.62909,0 113.4,-50.77091 113.4,-113.4c0,-62.62909 -50.77091,-113.4 -113.4,-113.4c-62.62909,0 -113.4,50.77091 -113.4,113.4c0,62.62909 50.77091,113.4 113.4,113.4z" fill="#ee4444"></path><g id="Слой_1" fill="#e74c3c"><circle cx="47.55422" cy="57.55422" transform="scale(3.26813,3.26813)" r="3"></circle><path d="M86.7825,126h-3.26812v-59.73479c1.94453,-1.13404 3.26812,-3.2191 3.26812,-5.62771v-13.0725c0,-3.60474 -2.93151,-6.53625 -6.53625,-6.53625h-13.0725c-3.60474,0 -6.53625,2.93151 -6.53625,6.53625v13.0725c0,2.40861 1.32359,4.49367 3.26813,5.62771v59.73479h-3.26813c-5.40548,0 -9.80437,4.3989 -9.80437,9.80437v52.29c0,12.61169 10.26518,22.87687 22.87688,22.87687c12.61169,0 22.87688,-10.26518 22.87688,-22.87687v-52.29c0,-5.40548 -4.3989,-9.80437 -9.80437,-9.80437zM67.17375,47.565h13.0725v13.0725h-13.0725zM70.44187,67.17375h6.53625v58.82625h-6.53625zM60.6375,132.53625h3.26813h19.60875h3.26812c1.80401,0 3.26812,1.46412 3.26812,3.26812v9.80437h-32.68125v-9.80437c0,-1.804 1.46412,-3.26812 3.26812,-3.26812zM83.51438,184.82625v-32.68125h6.53625v32.68125zM57.36937,184.82625v-32.68125h6.53625v32.68125zM70.44187,152.145h6.53625v32.68125h-6.53625zM73.71,204.435c-7.89252,0 -14.49087,-5.62444 -16.01054,-13.0725h32.02109c-1.51968,7.44806 -8.11802,13.0725 -16.01054,13.0725z"></path><path d="M201.16688,76.97812c0,-20.83103 -13.74573,-35.94938 -32.68125,-35.94938h-3.26812v29.41312c0,1.80401 -1.46412,3.26813 -3.26812,3.26813h-13.0725c-1.804,0 -3.26812,-1.46412 -3.26812,-3.26813v-29.41312h-3.26812c-10.07236,0 -18.92244,4.22242 -24.91945,11.88617c-7.21929,9.22592 -9.57234,22.65137 -6.28787,35.91016c3.23218,13.06923 14.37321,22.51085 27.7235,23.91941l-5.01004,75.17668c-0.39544,5.94472 1.7125,11.85022 5.78458,16.20336c4.07208,4.34987 9.82398,6.84672 15.78178,6.84672c5.96433,0 11.72276,-2.49685 15.79485,-6.84672c4.12437,-4.41197 6.17676,-10.15733 5.77478,-16.18375l-5.01004,-75.18975c17.11517,-1.73211 29.19416,-16.23931 29.19416,-35.7729zM168.48889,106.39125h-3.49363l5.4643,81.98418c0.28106,4.20281 -1.15038,8.20953 -4.02306,11.28157c-2.88575,3.07857 -6.7977,4.778 -11.02339,4.778c-4.21588,0 -8.12456,-1.69616 -11.00705,-4.77473c-2.88249,-3.08184 -4.31392,-7.0951 -4.03287,-11.30444l5.4545,-81.96458h-3.49036c-11.84695,0 -22.06965,-7.86965 -24.85736,-19.13487c-2.80405,-11.32732 -0.89873,-22.65791 5.09174,-30.30859c4.14398,-5.29436 9.80111,-8.4383 16.50403,-9.1965v22.69059c0,5.40548 4.3989,9.80438 9.80437,9.80438h13.0725c5.40548,0 9.80437,-4.3989 9.80437,-9.80438v-22.68732c13.62808,1.58831 22.87688,13.16074 22.87688,29.22357c-0.00327,17.31779 -10.75213,29.41313 -26.145,29.41313z"></path><rect x="46.55422" y="37.55422" transform="scale(3.26813,3.26813)" width="2" height="14"></rect></g><path d="M126,244.44c-65.41261,0 -118.44,-53.02739 -118.44,-118.44v0c0,-65.41261 53.02739,-118.44 118.44,-118.44v0c65.41261,0 118.44,53.02739 118.44,118.44v0c0,65.41261 -53.02739,118.44 -118.44,118.44z" fill="none"></path><path d="M126,239.4c-62.62909,0 -113.4,-50.77091 -113.4,-113.4v0c0,-62.62909 50.77091,-113.4 113.4,-113.4h0c62.62909,0 113.4,50.77091 113.4,113.4v0c0,62.62909 -50.77091,113.4 -113.4,113.4z" fill="none"></path></g></svg>